<?xml version="1.0" encoding="utf-8"?>
<!-- Generator: Adobe Illustrator 27.0.0, SVG Export Plug-In . SVG Version: 6.00 Build 0)  -->
<svg version="1.1" id="Capa_1" xmlns="http://www.w3.org/2000/svg" xmlns:xlink="http://www.w3.org/1999/xlink" x="0px" y="0px"
	 viewBox="0 0 24 24" style="enable-background:new 0 0 24 24;" xml:space="preserve">
<style type="text/css">
	.st0{fill:#3B3B7E;}
</style>
<path class="st0" d="M19.9,8.6C19.7,8.3,19.4,8,19,8h-4.6l1.3-4.7c0.1-0.3,0-0.6-0.2-0.9C15.3,2.1,15,2,14.7,2h-7
	c-0.5,0-0.9,0.3-1,0.7L4,12.7C4,13,4,13.4,4.2,13.6C4.4,13.9,4.7,14,5,14h3.9l-1.8,6.7c-0.1,0.5,0.2,1.1,0.7,1.2
	c0.4,0.1,0.8,0,1-0.3l10.9-12C20,9.4,20,9,19.9,8.6z M10.1,17.3l1.1-4c0.1-0.3,0-0.6-0.2-0.9c-0.2-0.2-0.5-0.4-0.8-0.4H6.3l2.1-8
	h4.9l-1.3,4.7C12,9.3,12.3,9.8,12.9,10c0.1,0,0.2,0,0.3,0h3.6L10.1,17.3z"/>
</svg>
