<?xml version="1.0" encoding="UTF-8"?><svg id="Capa_1" xmlns="http://www.w3.org/2000/svg" viewBox="0 0 28.9 24.85"><defs><style>.cls-1{fill:#fff;}</style></defs><path class="cls-1" d="M27.11,3.59H1.79c-.99,0-1.79-.8-1.79-1.79S.8,0,1.79,0H27.11c.99,0,1.79,.8,1.79,1.79s-.8,1.79-1.79,1.79Z"/><path class="cls-1" d="M27.11,14.22H9.8c-.99,0-1.79-.8-1.79-1.79s.8-1.79,1.79-1.79H27.11c.99,0,1.79,.8,1.79,1.79s-.8,1.79-1.79,1.79Z"/><path class="cls-1" d="M27.11,24.85h-10.34c-.99,0-1.79-.8-1.79-1.79s.8-1.79,1.79-1.79h10.34c.99,0,1.79,.8,1.79,1.79s-.8,1.79-1.79,1.79Z"/></svg>